<svg width="20" height="20" viewBox="0 0 24 24" fill="none" xmlns="http://www.w3.org/2000/svg"><path d="M8.2 1.687c-1.745.16-3.243.854-4.451 2.062-2.098 2.098-2.665 5.188-1.452 7.918.679 1.527 2.012 2.86 3.536 3.536a7.078 7.078 0 0 0 6.974-.647 8.34 8.34 0 0 1 .292-.205c.028-.018.663.594 1.98 1.908 1.066 1.064 1.988 1.959 2.05 1.99.379.191.872.038 1.094-.339.08-.138.094-.195.093-.41 0-.177-.019-.284-.062-.367-.033-.064-.931-.988-1.995-2.054-1.314-1.317-1.926-1.952-1.908-1.98a8.34 8.34 0 0 1 .205-.292c.966-1.347 1.432-3.193 1.229-4.874a6.986 6.986 0 0 0-2.034-4.184 7.02 7.02 0 0 0-3.938-2c-.326-.05-1.323-.088-1.613-.062m1.05 1.681a5 5 0 0 1 1.733.458c2.084.949 3.354 3.109 3.154 5.362-.063.703-.19 1.196-.463 1.795-.748 1.643-2.21 2.772-4.024 3.109-.412.076-1.388.076-1.8 0-1.581-.294-2.882-1.176-3.716-2.522-.928-1.495-1.047-3.412-.313-5.047A5.396 5.396 0 0 1 9.25 3.368" fill-rule="evenodd" fill="#000"/></svg>